<?xml version='1.0' encoding='UTF-8'?>
<svg width="57mm" height="57mm" version="1.1" viewBox="0 0 57 57" xmlns="http://www.w3.org/2000/svg"><path d="M2,2H3V3H2zM3,2H4V3H3zM4,2H5V3H4zM5,2H6V3H5zM6,2H7V3H6zM7,2H8V3H7zM8,2H9V3H8zM11,2H12V3H11zM12,2H13V3H12zM13,2H14V3H13zM14,2H15V3H14zM19,2H20V3H19zM20,2H21V3H20zM21,2H22V3H21zM22,2H23V3H22zM26,2H27V3H26zM27,2H28V3H27zM29,2H30V3H29zM31,2H32V3H31zM34,2H35V3H34zM36,2H37V3H36zM40,2H41V3H40zM43,2H44V3H43zM44,2H45V3H44zM48,2H49V3H48zM49,2H50V3H49zM50,2H51V3H50zM51,2H52V3H51zM52,2H53V3H52zM53,2H54V3H53zM54,2H55V3H54zM2,3H3V4H2zM8,3H9V4H8zM10,3H11V4H10zM14,3H15V4H14zM16,3H17V4H16zM18,3H19V4H18zM21,3H22V4H21zM22,3H23V4H22zM23,3H24V4H23zM24,3H25V4H24zM25,3H26V4H25zM26,3H27V4H26zM27,3H28V4H27zM28,3H29V4H28zM29,3H30V4H29zM31,3H32V4H31zM33,3H34V4H33zM34,3H35V4H34zM38,3H39V4H38zM40,3H41V4H40zM44,3H45V4H44zM45,3H46V4H45zM48,3H49V4H48zM54,3H55V4H54zM2,4H3V5H2zM4,4H5V5H4zM5,4H6V5H5zM6,4H7V5H6zM8,4H9V5H8zM10,4H11V5H10zM11,4H12V5H11zM12,4H13V5H12zM13,4H14V5H13zM14,4H15V5H14zM17,4H18V5H17zM18,4H19V5H18zM19,4H20V5H19zM20,4H21V5H20zM21,4H22V5H21zM22,4H23V5H22zM25,4H26V5H25zM27,4H28V5H27zM31,4H32V5H31zM33,4H34V5H33zM34,4H35V5H34zM35,4H36V5H35zM36,4H37V5H36zM38,4H39V5H38zM41,4H42V5H41zM43,4H44V5H43zM45,4H46V5H45zM48,4H49V5H48zM50,4H51V5H50zM51,4H52V5H51zM52,4H53V5H52zM54,4H55V5H54zM2,5H3V6H2zM4,5H5V6H4zM5,5H6V6H5zM6,5H7V6H6zM8,5H9V6H8zM10,5H11V6H10zM11,5H12V6H11zM13,5H14V6H13zM15,5H16V6H15zM17,5H18V6H17zM18,5H19V6H18zM28,5H29V6H28zM31,5H32V6H31zM33,5H34V6H33zM35,5H36V6H35zM36,5H37V6H36zM40,5H41V6H40zM41,5H42V6H41zM43,5H44V6H43zM44,5H45V6H44zM46,5H47V6H46zM48,5H49V6H48zM50,5H51V6H50zM51,5H52V6H51zM52,5H53V6H52zM54,5H55V6H54zM2,6H3V7H2zM4,6H5V7H4zM5,6H6V7H5zM6,6H7V7H6zM8,6H9V7H8zM10,6H11V7H10zM12,6H13V7H12zM13,6H14V7H13zM14,6H15V7H14zM15,6H16V7H15zM16,6H17V7H16zM17,6H18V7H17zM18,6H19V7H18zM20,6H21V7H20zM23,6H24V7H23zM26,6H27V7H26zM27,6H28V7H27zM28,6H29V7H28zM29,6H30V7H29zM30,6H31V7H30zM33,6H34V7H33zM34,6H35V7H34zM36,6H37V7H36zM38,6H39V7H38zM40,6H41V7H40zM42,6H43V7H42zM44,6H45V7H44zM48,6H49V7H48zM50,6H51V7H50zM51,6H52V7H51zM52,6H53V7H52zM54,6H55V7H54zM2,7H3V8H2zM8,7H9V8H8zM10,7H11V8H10zM12,7H13V8H12zM14,7H15V8H14zM17,7H18V8H17zM18,7H19V8H18zM19,7H20V8H19zM20,7H21V8H20zM21,7H22V8H21zM23,7H24V8H23zM25,7H26V8H25zM26,7H27V8H26zM30,7H31V8H30zM31,7H32V8H31zM33,7H34V8H33zM34,7H35V8H34zM36,7H37V8H36zM40,7H41V8H40zM41,7H42V8H41zM43,7H44V8H43zM44,7H45V8H44zM48,7H49V8H48zM54,7H55V8H54zM2,8H3V9H2zM3,8H4V9H3zM4,8H5V9H4zM5,8H6V9H5zM6,8H7V9H6zM7,8H8V9H7zM8,8H9V9H8zM10,8H11V9H10zM12,8H13V9H12zM14,8H15V9H14zM16,8H17V9H16zM18,8H19V9H18zM20,8H21V9H20zM22,8H23V9H22zM24,8H25V9H24zM26,8H27V9H26zM28,8H29V9H28zM30,8H31V9H30zM32,8H33V9H32zM34,8H35V9H34zM36,8H37V9H36zM38,8H39V9H38zM40,8H41V9H40zM42,8H43V9H42zM44,8H45V9H44zM46,8H47V9H46zM48,8H49V9H48zM49,8H50V9H49zM50,8H51V9H50zM51,8H52V9H51zM52,8H53V9H52zM53,8H54V9H53zM54,8H55V9H54zM11,9H12V10H11zM13,9H14V10H13zM14,9H15V10H14zM16,9H17V10H16zM19,9H20V10H19zM22,9H23V10H22zM24,9H25V10H24zM25,9H26V10H25zM26,9H27V10H26zM30,9H31V10H30zM31,9H32V10H31zM32,9H33V10H32zM33,9H34V10H33zM34,9H35V10H34zM35,9H36V10H35zM36,9H37V10H36zM38,9H39V10H38zM39,9H40V10H39zM41,9H42V10H41zM42,9H43V10H42zM45,9H46V10H45zM4,10H5V11H4zM7,10H8V11H7zM8,10H9V11H8zM9,10H10V11H9zM10,10H11V11H10zM11,10H12V11H11zM12,10H13V11H12zM13,10H14V11H13zM18,10H19V11H18zM19,10H20V11H19zM20,10H21V11H20zM21,10H22V11H21zM22,10H23V11H22zM24,10H25V11H24zM26,10H27V11H26zM27,10H28V11H27zM28,10H29V11H28zM29,10H30V11H29zM30,10H31V11H30zM32,10H33V11H32zM34,10H35V11H34zM38,10H39V11H38zM39,10H40V11H39zM42,10H43V11H42zM47,10H48V11H47zM49,10H50V11H49zM50,10H51V11H50zM51,10H52V11H51zM52,10H53V11H52zM53,10H54V11H53zM3,11H4V12H3zM6,11H7V12H6zM7,11H8V12H7zM10,11H11V12H10zM11,11H12V12H11zM13,11H14V12H13zM17,11H18V12H17zM18,11H19V12H18zM19,11H20V12H19zM21,11H22V12H21zM24,11H25V12H24zM25,11H26V12H25zM26,11H27V12H26zM28,11H29V12H28zM31,11H32V12H31zM34,11H35V12H34zM35,11H36V12H35zM36,11H37V12H36zM37,11H38V12H37zM39,11H40V12H39zM41,11H42V12H41zM42,11H43V12H42zM43,11H44V12H43zM54,11H55V12H54zM2,12H3V13H2zM3,12H4V13H3zM4,12H5V13H4zM5,12H6V13H5zM6,12H7V13H6zM7,12H8V13H7zM8,12H9V13H8zM9,12H10V13H9zM13,12H14V13H13zM15,12H16V13H15zM22,12H23V13H22zM27,12H28V13H27zM28,12H29V13H28zM29,12H30V13H29zM33,12H34V13H33zM35,12H36V13H35zM39,12H40V13H39zM43,12H44V13H43zM47,12H48V13H47zM49,12H50V13H49zM50,12H51V13H50zM51,12H52V13H51zM52,12H53V13H52zM54,12H55V13H54zM5,13H6V14H5zM6,13H7V14H6zM9,13H10V14H9zM10,13H11V14H10zM12,13H13V14H12zM13,13H14V14H13zM15,13H16V14H15zM16,13H17V14H16zM19,13H20V14H19zM20,13H21V14H20zM21,13H22V14H21zM24,13H25V14H24zM25,13H26V14H25zM27,13H28V14H27zM29,13H30V14H29zM31,13H32V14H31zM32,13H33V14H32zM34,13H35V14H34zM35,13H36V14H35zM37,13H38V14H37zM41,13H42V14H41zM47,13H48V14H47zM48,13H49V14H48zM49,13H50V14H49zM50,13H51V14H50zM54,13H55V14H54zM2,14H3V15H2zM3,14H4V15H3zM5,14H6V15H5zM6,14H7V15H6zM7,14H8V15H7zM8,14H9V15H8zM10,14H11V15H10zM11,14H12V15H11zM14,14H15V15H14zM15,14H16V15H15zM17,14H18V15H17zM19,14H20V15H19zM20,14H21V15H20zM21,14H22V15H21zM22,14H23V15H22zM26,14H27V15H26zM28,14H29V15H28zM30,14H31V15H30zM31,14H32V15H31zM33,14H34V15H33zM34,14H35V15H34zM35,14H36V15H35zM38,14H39V15H38zM41,14H42V15H41zM42,14H43V15H42zM44,14H45V15H44zM45,14H46V15H45zM46,14H47V15H46zM47,14H48V15H47zM50,14H51V15H50zM51,14H52V15H51zM3,15H4V16H3zM4,15H5V16H4zM5,15H6V16H5zM6,15H7V16H6zM7,15H8V16H7zM9,15H10V16H9zM12,15H13V16H12zM15,15H16V16H15zM16,15H17V16H16zM17,15H18V16H17zM19,15H20V16H19zM20,15H21V16H20zM21,15H22V16H21zM23,15H24V16H23zM26,15H27V16H26zM27,15H28V16H27zM28,15H29V16H28zM33,15H34V16H33zM34,15H35V16H34zM37,15H38V16H37zM38,15H39V16H38zM41,15H42V16H41zM43,15H44V16H43zM45,15H46V16H45zM46,15H47V16H46zM47,15H48V16H47zM48,15H49V16H48zM51,15H52V16H51zM52,15H53V16H52zM53,15H54V16H53zM54,15H55V16H54zM2,16H3V17H2zM4,16H5V17H4zM8,16H9V17H8zM9,16H10V17H9zM11,16H12V17H11zM12,16H13V17H12zM13,16H14V17H13zM14,16H15V17H14zM17,16H18V17H17zM18,16H19V17H18zM19,16H20V17H19zM20,16H21V17H20zM21,16H22V17H21zM25,16H26V17H25zM29,16H30V17H29zM33,16H34V17H33zM35,16H36V17H35zM39,16H40V17H39zM41,16H42V17H41zM42,16H43V17H42zM45,16H46V17H45zM47,16H48V17H47zM48,16H49V17H48zM49,16H50V17H49zM52,16H53V17H52zM54,16H55V17H54zM4,17H5V18H4zM7,17H8V18H7zM10,17H11V18H10zM12,17H13V18H12zM13,17H14V18H13zM15,17H16V18H15zM17,17H18V18H17zM20,17H21V18H20zM22,17H23V18H22zM24,17H25V18H24zM25,17H26V18H25zM27,17H28V18H27zM28,17H29V18H28zM31,17H32V18H31zM32,17H33V18H32zM33,17H34V18H33zM34,17H35V18H34zM39,17H40V18H39zM40,17H41V18H40zM42,17H43V18H42zM45,17H46V18H45zM46,17H47V18H46zM47,17H48V18H47zM50,17H51V18H50zM51,17H52V18H51zM54,17H55V18H54zM2,18H3V19H2zM6,18H7V19H6zM8,18H9V19H8zM10,18H11V19H10zM12,18H13V19H12zM14,18H15V19H14zM20,18H21V19H20zM21,18H22V19H21zM23,18H24V19H23zM25,18H26V19H25zM26,18H27V19H26zM27,18H28V19H27zM31,18H32V19H31zM32,18H33V19H32zM34,18H35V19H34zM35,18H36V19H35zM38,18H39V19H38zM39,18H40V19H39zM41,18H42V19H41zM42,18H43V19H42zM43,18H44V19H43zM47,18H48V19H47zM48,18H49V19H48zM49,18H50V19H49zM50,18H51V19H50zM52,18H53V19H52zM4,19H5V20H4zM6,19H7V20H6zM9,19H10V20H9zM11,19H12V20H11zM13,19H14V20H13zM16,19H17V20H16zM18,19H19V20H18zM19,19H20V20H19zM21,19H22V20H21zM24,19H25V20H24zM25,19H26V20H25zM27,19H28V20H27zM28,19H29V20H28zM29,19H30V20H29zM32,19H33V20H32zM34,19H35V20H34zM35,19H36V20H35zM36,19H37V20H36zM37,19H38V20H37zM39,19H40V20H39zM42,19H43V20H42zM43,19H44V20H43zM47,19H48V20H47zM49,19H50V20H49zM51,19H52V20H51zM54,19H55V20H54zM2,20H3V21H2zM4,20H5V21H4zM5,20H6V21H5zM6,20H7V21H6zM8,20H9V21H8zM9,20H10V21H9zM11,20H12V21H11zM12,20H13V21H12zM14,20H15V21H14zM15,20H16V21H15zM18,20H19V21H18zM19,20H20V21H19zM24,20H25V21H24zM26,20H27V21H26zM28,20H29V21H28zM29,20H30V21H29zM31,20H32V21H31zM32,20H33V21H32zM33,20H34V21H33zM34,20H35V21H34zM35,20H36V21H35zM36,20H37V21H36zM39,20H40V21H39zM41,20H42V21H41zM42,20H43V21H42zM43,20H44V21H43zM45,20H46V21H45zM49,20H50V21H49zM50,20H51V21H50zM52,20H53V21H52zM54,20H55V21H54zM2,21H3V22H2zM3,21H4V22H3zM4,21H5V22H4zM6,21H7V22H6zM7,21H8V22H7zM9,21H10V22H9zM11,21H12V22H11zM12,21H13V22H12zM13,21H14V22H13zM15,21H16V22H15zM17,21H18V22H17zM18,21H19V22H18zM19,21H20V22H19zM20,21H21V22H20zM21,21H22V22H21zM28,21H29V22H28zM29,21H30V22H29zM30,21H31V22H30zM32,21H33V22H32zM33,21H34V22H33zM34,21H35V22H34zM39,21H40V22H39zM40,21H41V22H40zM42,21H43V22H42zM45,21H46V22H45zM47,21H48V22H47zM50,21H51V22H50zM51,21H52V22H51zM54,21H55V22H54zM2,22H3V23H2zM4,22H5V23H4zM6,22H7V23H6zM7,22H8V23H7zM8,22H9V23H8zM9,22H10V23H9zM10,22H11V23H10zM11,22H12V23H11zM12,22H13V23H12zM13,22H14V23H13zM17,22H18V23H17zM18,22H19V23H18zM19,22H20V23H19zM24,22H25V23H24zM25,22H26V23H25zM32,22H33V23H32zM34,22H35V23H34zM36,22H37V23H36zM39,22H40V23H39zM42,22H43V23H42zM48,22H49V23H48zM50,22H51V23H50zM54,22H55V23H54zM4,23H5V24H4zM5,23H6V24H5zM10,23H11V24H10zM13,23H14V24H13zM14,23H15V24H14zM16,23H17V24H16zM18,23H19V24H18zM19,23H20V24H19zM23,23H24V24H23zM24,23H25V24H24zM25,23H26V24H25zM27,23H28V24H27zM28,23H29V24H28zM29,23H30V24H29zM31,23H32V24H31zM32,23H33V24H32zM36,23H37V24H36zM38,23H39V24H38zM39,23H40V24H39zM40,23H41V24H40zM41,23H42V24H41zM43,23H44V24H43zM45,23H46V24H45zM47,23H48V24H47zM49,23H50V24H49zM50,23H51V24H50zM2,24H3V25H2zM8,24H9V25H8zM11,24H12V25H11zM13,24H14V25H13zM17,24H18V25H17zM19,24H20V25H19zM20,24H21V25H20zM21,24H22V25H21zM24,24H25V25H24zM28,24H29V25H28zM29,24H30V25H29zM32,24H33V25H32zM34,24H35V25H34zM39,24H40V25H39zM40,24H41V25H40zM41,24H42V25H41zM46,24H47V25H46zM47,24H48V25H47zM49,24H50V25H49zM50,24H51V25H50zM52,24H53V25H52zM53,24H54V25H53zM54,24H55V25H54zM2,25H3V26H2zM3,25H4V26H3zM6,25H7V26H6zM10,25H11V26H10zM12,25H13V26H12zM14,25H15V26H14zM16,25H17V26H16zM17,25H18V26H17zM18,25H19V26H18zM22,25H23V26H22zM24,25H25V26H24zM25,25H26V26H25zM27,25H28V26H27zM28,25H29V26H28zM30,25H31V26H30zM33,25H34V26H33zM34,25H35V26H34zM35,25H36V26H35zM36,25H37V26H36zM38,25H39V26H38zM39,25H40V26H39zM42,25H43V26H42zM43,25H44V26H43zM47,25H48V26H47zM48,25H49V26H48zM50,25H51V26H50zM5,26H6V27H5zM6,26H7V27H6zM7,26H8V27H7zM8,26H9V27H8zM9,26H10V27H9zM10,26H11V27H10zM12,26H13V27H12zM15,26H16V27H15zM17,26H18V27H17zM19,26H20V27H19zM21,26H22V27H21zM22,26H23V27H22zM24,26H25V27H24zM25,26H26V27H25zM26,26H27V27H26zM27,26H28V27H27zM28,26H29V27H28zM29,26H30V27H29zM30,26H31V27H30zM33,26H34V27H33zM34,26H35V27H34zM38,26H39V27H38zM42,26H43V27H42zM43,26H44V27H43zM44,26H45V27H44zM46,26H47V27H46zM47,26H48V27H47zM48,26H49V27H48zM49,26H50V27H49zM50,26H51V27H50zM51,26H52V27H51zM2,27H3V28H2zM4,27H5V28H4zM6,27H7V28H6zM10,27H11V28H10zM11,27H12V28H11zM14,27H15V28H14zM17,27H18V28H17zM20,27H21V28H20zM21,27H22V28H21zM22,27H23V28H22zM26,27H27V28H26zM30,27H31V28H30zM31,27H32V28H31zM34,27H35V28H34zM39,27H40V28H39zM41,27H42V28H41zM45,27H46V28H45zM46,27H47V28H46zM50,27H51V28H50zM51,27H52V28H51zM52,27H53V28H52zM54,27H55V28H54zM4,28H5V29H4zM6,28H7V29H6zM8,28H9V29H8zM10,28H11V29H10zM14,28H15V29H14zM15,28H16V29H15zM16,28H17V29H16zM18,28H19V29H18zM20,28H21V29H20zM21,28H22V29H21zM22,28H23V29H22zM23,28H24V29H23zM24,28H25V29H24zM25,28H26V29H25zM26,28H27V29H26zM28,28H29V29H28zM30,28H31V29H30zM32,28H33V29H32zM35,28H36V29H35zM38,28H39V29H38zM46,28H47V29H46zM48,28H49V29H48zM50,28H51V29H50zM51,28H52V29H51zM54,28H55V29H54zM2,29H3V30H2zM3,29H4V30H3zM6,29H7V30H6zM10,29H11V30H10zM15,29H16V30H15zM17,29H18V30H17zM18,29H19V30H18zM20,29H21V30H20zM21,29H22V30H21zM25,29H26V30H25zM26,29H27V30H26zM30,29H31V30H30zM31,29H32V30H31zM32,29H33V30H32zM33,29H34V30H33zM35,29H36V30H35zM36,29H37V30H36zM38,29H39V30H38zM39,29H40V30H39zM46,29H47V30H46zM50,29H51V30H50zM51,29H52V30H51zM52,29H53V30H52zM54,29H55V30H54zM2,30H3V31H2zM3,30H4V31H3zM4,30H5V31H4zM6,30H7V31H6zM7,30H8V31H7zM8,30H9V31H8zM9,30H10V31H9zM10,30H11V31H10zM11,30H12V31H11zM14,30H15V31H14zM15,30H16V31H15zM16,30H17V31H16zM17,30H18V31H17zM21,30H22V31H21zM23,30H24V31H23zM24,30H25V31H24zM26,30H27V31H26zM27,30H28V31H27zM28,30H29V31H28zM29,30H30V31H29zM30,30H31V31H30zM31,30H32V31H31zM32,30H33V31H32zM33,30H34V31H33zM35,30H36V31H35zM36,30H37V31H36zM38,30H39V31H38zM39,30H40V31H39zM40,30H41V31H40zM42,30H43V31H42zM44,30H45V31H44zM45,30H46V31H45zM46,30H47V31H46zM47,30H48V31H47zM48,30H49V31H48zM49,30H50V31H49zM50,30H51V31H50zM51,30H52V31H51zM52,30H53V31H52zM53,30H54V31H53zM54,30H55V31H54zM2,31H3V32H2zM6,31H7V32H6zM11,31H12V32H11zM16,31H17V32H16zM19,31H20V32H19zM21,31H22V32H21zM22,31H23V32H22zM23,31H24V32H23zM25,31H26V32H25zM27,31H28V32H27zM28,31H29V32H28zM29,31H30V32H29zM30,31H31V32H30zM31,31H32V32H31zM32,31H33V32H32zM34,31H35V32H34zM39,31H40V32H39zM41,31H42V32H41zM47,31H48V32H47zM49,31H50V32H49zM52,31H53V32H52zM54,31H55V32H54zM3,32H4V33H3zM4,32H5V33H4zM8,32H9V33H8zM10,32H11V33H10zM12,32H13V33H12zM13,32H14V33H13zM14,32H15V33H14zM16,32H17V33H16zM18,32H19V33H18zM19,32H20V33H19zM20,32H21V33H20zM22,32H23V33H22zM26,32H27V33H26zM27,32H28V33H27zM28,32H29V33H28zM29,32H30V33H29zM34,32H35V33H34zM36,32H37V33H36zM39,32H40V33H39zM44,32H45V33H44zM45,32H46V33H45zM46,32H47V33H46zM47,32H48V33H47zM48,32H49V33H48zM51,32H52V33H51zM52,32H53V33H52zM54,32H55V33H54zM4,33H5V34H4zM5,33H6V34H5zM7,33H8V34H7zM9,33H10V34H9zM11,33H12V34H11zM12,33H13V34H12zM13,33H14V34H13zM15,33H16V34H15zM16,33H17V34H16zM17,33H18V34H17zM25,33H26V34H25zM29,33H30V34H29zM31,33H32V34H31zM35,33H36V34H35zM38,33H39V34H38zM39,33H40V34H39zM41,33H42V34H41zM42,33H43V34H42zM44,33H45V34H44zM45,33H46V34H45zM46,33H47V34H46zM48,33H49V34H48zM49,33H50V34H49zM50,33H51V34H50zM51,33H52V34H51zM53,33H54V34H53zM2,34H3V35H2zM3,34H4V35H3zM5,34H6V35H5zM6,34H7V35H6zM7,34H8V35H7zM8,34H9V35H8zM10,34H11V35H10zM11,34H12V35H11zM12,34H13V35H12zM15,34H16V35H15zM19,34H20V35H19zM22,34H23V35H22zM23,34H24V35H23zM24,34H25V35H24zM26,34H27V35H26zM27,34H28V35H27zM29,34H30V35H29zM30,34H31V35H30zM34,34H35V35H34zM35,34H36V35H35zM36,34H37V35H36zM37,34H38V35H37zM38,34H39V35H38zM40,34H41V35H40zM42,34H43V35H42zM43,34H44V35H43zM45,34H46V35H45zM46,34H47V35H46zM49,34H50V35H49zM2,35H3V36H2zM3,35H4V36H3zM4,35H5V36H4zM5,35H6V36H5zM7,35H8V36H7zM11,35H12V36H11zM12,35H13V36H12zM13,35H14V36H13zM15,35H16V36H15zM19,35H20V36H19zM20,35H21V36H20zM23,35H24V36H23zM24,35H25V36H24zM25,35H26V36H25zM27,35H28V36H27zM28,35H29V36H28zM29,35H30V36H29zM30,35H31V36H30zM32,35H33V36H32zM35,35H36V36H35zM38,35H39V36H38zM39,35H40V36H39zM42,35H43V36H42zM46,35H47V36H46zM47,35H48V36H47zM48,35H49V36H48zM49,35H50V36H49zM54,35H55V36H54zM2,36H3V37H2zM7,36H8V37H7zM8,36H9V37H8zM9,36H10V37H9zM13,36H14V37H13zM14,36H15V37H14zM18,36H19V37H18zM20,36H21V37H20zM22,36H23V37H22zM24,36H25V37H24zM25,36H26V37H25zM26,36H27V37H26zM27,36H28V37H27zM28,36H29V37H28zM29,36H30V37H29zM31,36H32V37H31zM32,36H33V37H32zM35,36H36V37H35zM36,36H37V37H36zM37,36H38V37H37zM38,36H39V37H38zM39,36H40V37H39zM40,36H41V37H40zM43,36H44V37H43zM48,36H49V37H48zM50,36H51V37H50zM53,36H54V37H53zM54,36H55V37H54zM2,37H3V38H2zM4,37H5V38H4zM6,37H7V38H6zM7,37H8V38H7zM9,37H10V38H9zM10,37H11V38H10zM11,37H12V38H11zM18,37H19V38H18zM20,37H21V38H20zM21,37H22V38H21zM22,37H23V38H22zM23,37H24V38H23zM25,37H26V38H25zM27,37H28V38H27zM28,37H29V38H28zM29,37H30V38H29zM30,37H31V38H30zM31,37H32V38H31zM38,37H39V38H38zM39,37H40V38H39zM40,37H41V38H40zM41,37H42V38H41zM42,37H43V38H42zM46,37H47V38H46zM48,37H49V38H48zM49,37H50V38H49zM51,37H52V38H51zM53,37H54V38H53zM2,38H3V39H2zM5,38H6V39H5zM6,38H7V39H6zM8,38H9V39H8zM9,38H10V39H9zM10,38H11V39H10zM12,38H13V39H12zM15,38H16V39H15zM17,38H18V39H17zM18,38H19V39H18zM20,38H21V39H20zM22,38H23V39H22zM23,38H24V39H23zM24,38H25V39H24zM29,38H30V39H29zM33,38H34V39H33zM34,38H35V39H34zM38,38H39V39H38zM42,38H43V39H42zM45,38H46V39H45zM51,38H52V39H51zM54,38H55V39H54zM2,39H3V40H2zM3,39H4V40H3zM4,39H5V40H4zM7,39H8V40H7zM9,39H10V40H9zM15,39H16V40H15zM16,39H17V40H16zM18,39H19V40H18zM19,39H20V40H19zM21,39H22V40H21zM23,39H24V40H23zM24,39H25V40H24zM25,39H26V40H25zM26,39H27V40H26zM28,39H29V40H28zM31,39H32V40H31zM36,39H37V40H36zM39,39H40V40H39zM43,39H44V40H43zM45,39H46V40H45zM46,39H47V40H46zM47,39H48V40H47zM49,39H50V40H49zM53,39H54V40H53zM2,40H3V41H2zM3,40H4V41H3zM4,40H5V41H4zM5,40H6V41H5zM8,40H9V41H8zM9,40H10V41H9zM10,40H11V41H10zM11,40H12V41H11zM12,40H13V41H12zM13,40H14V41H13zM14,40H15V41H14zM18,40H19V41H18zM19,40H20V41H19zM22,40H23V41H22zM23,40H24V41H23zM26,40H27V41H26zM29,40H30V41H29zM32,40H33V41H32zM33,40H34V41H33zM36,40H37V41H36zM38,40H39V41H38zM39,40H40V41H39zM42,40H43V41H42zM46,40H47V41H46zM48,40H49V41H48zM49,40H50V41H49zM50,40H51V41H50zM54,40H55V41H54zM2,41H3V42H2zM3,41H4V42H3zM5,41H6V42H5zM6,41H7V42H6zM9,41H10V42H9zM12,41H13V42H12zM15,41H16V42H15zM17,41H18V42H17zM19,41H20V42H19zM21,41H22V42H21zM27,41H28V42H27zM28,41H29V42H28zM30,41H31V42H30zM31,41H32V42H31zM33,41H34V42H33zM39,41H40V42H39zM40,41H41V42H40zM42,41H43V42H42zM43,41H44V42H43zM45,41H46V42H45zM46,41H47V42H46zM47,41H48V42H47zM49,41H50V42H49zM51,41H52V42H51zM53,41H54V42H53zM3,42H4V43H3zM6,42H7V43H6zM7,42H8V43H7zM8,42H9V43H8zM10,42H11V43H10zM11,42H12V43H11zM14,42H15V43H14zM15,42H16V43H15zM17,42H18V43H17zM22,42H23V43H22zM24,42H25V43H24zM26,42H27V43H26zM30,42H31V43H30zM31,42H32V43H31zM34,42H35V43H34zM35,42H36V43H35zM36,42H37V43H36zM38,42H39V43H38zM41,42H42V43H41zM42,42H43V43H42zM44,42H45V43H44zM45,42H46V43H45zM48,42H49V43H48zM50,42H51V43H50zM51,42H52V43H51zM53,42H54V43H53zM54,42H55V43H54zM7,43H8V44H7zM10,43H11V44H10zM12,43H13V44H12zM17,43H18V44H17zM18,43H19V44H18zM22,43H23V44H22zM24,43H25V44H24zM25,43H26V44H25zM30,43H31V44H30zM32,43H33V44H32zM33,43H34V44H33zM35,43H36V44H35zM36,43H37V44H36zM37,43H38V44H37zM38,43H39V44H38zM39,43H40V44H39zM41,43H42V44H41zM42,43H43V44H42zM43,43H44V44H43zM46,43H47V44H46zM51,43H52V44H51zM52,43H53V44H52zM54,43H55V44H54zM2,44H3V45H2zM3,44H4V45H3zM5,44H6V45H5zM6,44H7V45H6zM7,44H8V45H7zM8,44H9V45H8zM10,44H11V45H10zM11,44H12V45H11zM17,44H18V45H17zM22,44H23V45H22zM24,44H25V45H24zM28,44H29V45H28zM30,44H31V45H30zM31,44H32V45H31zM35,44H36V45H35zM36,44H37V45H36zM37,44H38V45H37zM38,44H39V45H38zM43,44H44V45H43zM45,44H46V45H45zM48,44H49V45H48zM50,44H51V45H50zM52,44H53V45H52zM53,44H54V45H53zM54,44H55V45H54zM3,45H4V46H3zM4,45H5V46H4zM11,45H12V46H11zM13,45H14V46H13zM15,45H16V46H15zM16,45H17V46H16zM21,45H22V46H21zM22,45H23V46H22zM23,45H24V46H23zM27,45H28V46H27zM28,45H29V46H28zM31,45H32V46H31zM32,45H33V46H32zM34,45H35V46H34zM36,45H37V46H36zM38,45H39V46H38zM39,45H40V46H39zM40,45H41V46H40zM45,45H46V46H45zM46,45H47V46H46zM48,45H49V46H48zM51,45H52V46H51zM53,45H54V46H53zM54,45H55V46H54zM5,46H6V47H5zM8,46H9V47H8zM9,46H10V47H9zM15,46H16V47H15zM17,46H18V47H17zM18,46H19V47H18zM19,46H20V47H19zM20,46H21V47H20zM21,46H22V47H21zM22,46H23V47H22zM25,46H26V47H25zM26,46H27V47H26zM27,46H28V47H27zM28,46H29V47H28zM29,46H30V47H29zM30,46H31V47H30zM32,46H33V47H32zM36,46H37V47H36zM38,46H39V47H38zM40,46H41V47H40zM43,46H44V47H43zM45,46H46V47H45zM46,46H47V47H46zM47,46H48V47H47zM48,46H49V47H48zM49,46H50V47H49zM50,46H51V47H50zM52,46H53V47H52zM10,47H11V48H10zM11,47H12V48H11zM13,47H14V48H13zM14,47H15V48H14zM16,47H17V48H16zM17,47H18V48H17zM18,47H19V48H18zM20,47H21V48H20zM21,47H22V48H21zM22,47H23V48H22zM23,47H24V48H23zM25,47H26V48H25zM26,47H27V48H26zM30,47H31V48H30zM31,47H32V48H31zM32,47H33V48H32zM34,47H35V48H34zM35,47H36V48H35zM37,47H38V48H37zM39,47H40V48H39zM42,47H43V48H42zM46,47H47V48H46zM50,47H51V48H50zM54,47H55V48H54zM2,48H3V49H2zM3,48H4V49H3zM4,48H5V49H4zM5,48H6V49H5zM6,48H7V49H6zM7,48H8V49H7zM8,48H9V49H8zM10,48H11V49H10zM12,48H13V49H12zM13,48H14V49H13zM15,48H16V49H15zM17,48H18V49H17zM18,48H19V49H18zM19,48H20V49H19zM20,48H21V49H20zM21,48H22V49H21zM22,48H23V49H22zM26,48H27V49H26zM28,48H29V49H28zM30,48H31V49H30zM32,48H33V49H32zM34,48H35V49H34zM35,48H36V49H35zM36,48H37V49H36zM37,48H38V49H37zM39,48H40V49H39zM40,48H41V49H40zM43,48H44V49H43zM45,48H46V49H45zM46,48H47V49H46zM48,48H49V49H48zM50,48H51V49H50zM51,48H52V49H51zM52,48H53V49H52zM53,48H54V49H53zM54,48H55V49H54zM2,49H3V50H2zM8,49H9V50H8zM10,49H11V50H10zM11,49H12V50H11zM14,49H15V50H14zM15,49H16V50H15zM16,49H17V50H16zM20,49H21V50H20zM22,49H23V50H22zM25,49H26V50H25zM26,49H27V50H26zM30,49H31V50H30zM31,49H32V50H31zM33,49H34V50H33zM35,49H36V50H35zM37,49H38V50H37zM38,49H39V50H38zM40,49H41V50H40zM41,49H42V50H41zM42,49H43V50H42zM43,49H44V50H43zM44,49H45V50H44zM46,49H47V50H46zM50,49H51V50H50zM53,49H54V50H53zM54,49H55V50H54zM2,50H3V51H2zM4,50H5V51H4zM5,50H6V51H5zM6,50H7V51H6zM8,50H9V51H8zM12,50H13V51H12zM14,50H15V51H14zM15,50H16V51H15zM16,50H17V51H16zM18,50H19V51H18zM19,50H20V51H19zM21,50H22V51H21zM22,50H23V51H22zM23,50H24V51H23zM25,50H26V51H25zM26,50H27V51H26zM27,50H28V51H27zM28,50H29V51H28zM29,50H30V51H29zM30,50H31V51H30zM31,50H32V51H31zM33,50H34V51H33zM36,50H37V51H36zM38,50H39V51H38zM39,50H40V51H39zM40,50H41V51H40zM41,50H42V51H41zM42,50H43V51H42zM45,50H46V51H45zM46,50H47V51H46zM47,50H48V51H47zM48,50H49V51H48zM49,50H50V51H49zM50,50H51V51H50zM54,50H55V51H54zM2,51H3V52H2zM4,51H5V52H4zM5,51H6V52H5zM6,51H7V52H6zM8,51H9V52H8zM13,51H14V52H13zM17,51H18V52H17zM19,51H20V52H19zM20,51H21V52H20zM21,51H22V52H21zM22,51H23V52H22zM26,51H27V52H26zM27,51H28V52H27zM29,51H30V52H29zM30,51H31V52H30zM32,51H33V52H32zM34,51H35V52H34zM35,51H36V52H35zM37,51H38V52H37zM38,51H39V52H38zM39,51H40V52H39zM41,51H42V52H41zM45,51H46V52H45zM47,51H48V52H47zM48,51H49V52H48zM49,51H50V52H49zM50,51H51V52H50zM53,51H54V52H53zM2,52H3V53H2zM4,52H5V53H4zM5,52H6V53H5zM6,52H7V53H6zM8,52H9V53H8zM10,52H11V53H10zM13,52H14V53H13zM14,52H15V53H14zM15,52H16V53H15zM16,52H17V53H16zM19,52H20V53H19zM22,52H23V53H22zM25,52H26V53H25zM27,52H28V53H27zM30,52H31V53H30zM33,52H34V53H33zM34,52H35V53H34zM38,52H39V53H38zM41,52H42V53H41zM42,52H43V53H42zM43,52H44V53H43zM45,52H46V53H45zM46,52H47V53H46zM48,52H49V53H48zM50,52H51V53H50zM54,52H55V53H54zM2,53H3V54H2zM8,53H9V54H8zM11,53H12V54H11zM12,53H13V54H12zM13,53H14V54H13zM16,53H17V54H16zM19,53H20V54H19zM20,53H21V54H20zM21,53H22V54H21zM22,53H23V54H22zM24,53H25V54H24zM27,53H28V54H27zM28,53H29V54H28zM29,53H30V54H29zM30,53H31V54H30zM33,53H34V54H33zM36,53H37V54H36zM37,53H38V54H37zM42,53H43V54H42zM43,53H44V54H43zM45,53H46V54H45zM49,53H50V54H49zM51,53H52V54H51zM2,54H3V55H2zM3,54H4V55H3zM4,54H5V55H4zM5,54H6V55H5zM6,54H7V55H6zM7,54H8V55H7zM8,54H9V55H8zM11,54H12V55H11zM14,54H15V55H14zM15,54H16V55H15zM17,54H18V55H17zM19,54H20V55H19zM23,54H24V55H23zM24,54H25V55H24zM25,54H26V55H25zM26,54H27V55H26zM28,54H29V55H28zM32,54H33V55H32zM33,54H34V55H33zM35,54H36V55H35zM36,54H37V55H36zM37,54H38V55H37zM38,54H39V55H38zM40,54H41V55H40zM42,54H43V55H42zM43,54H44V55H43zM44,54H45V55H44zM45,54H46V55H45zM46,54H47V55H46zM51,54H52V55H51zM54,54H55V55H54z" id="qr-path" fill="#000000" fill-opacity="1" fill-rule="nonzero" stroke="none" /></svg>